<svg xmlns="http://www.w3.org/2000/svg" width="200.984" height="47.91" viewBox="0 0 200.984 47.91">
  <g id="Groupe_2" data-name="Groupe 2" transform="translate(-28.164 -31.294)">
    <path id="Tracé_1" data-name="Tracé 1" d="M237.494,40.849c-.02-1.286-.054-2.874-.1-3.232a7.444,7.444,0,0,0-7.41-6.323V48.4l1.732,1.006a4.451,4.451,0,0,1,2.035,3.739V74.712a3.768,3.768,0,0,0,3.769,3.769V48.4h4.153a7.544,7.544,0,0,0,7.547-7.547Z" transform="translate(-43.334 0)" fill="#2e2b28"/>
    <path id="Tracé_2" data-name="Tracé 2" d="M57.284,46.527v6.24c0,13.124-7.042,21.251-9.829,21.251l0,0c-1.414,0-2.214-1.1-2.214-5.968V54.705a5.228,5.228,0,0,0-5.23-5.23H28.164v2.788a6.621,6.621,0,0,0,3.282,5.78l.008.008a6.3,6.3,0,0,0,3.157.856h4.963a2.222,2.222,0,0,1,2.23,2.222V73.944c0,3.494,1.649,7.185,4.672,7.185l0,0c6.794,0,14.255-11,14.255-26.448V40.263C58.71,40.263,57.284,42.063,57.284,46.527Z" transform="translate(0 -1.926)" fill="#2e2b28"/>
    <path id="Tracé_3" data-name="Tracé 3" d="M94.927,51.011H85.453a6.547,6.547,0,0,1-6.446-6.641l0-.905H92.037c5.937,0,9.141,4.8,9.141,10.036v15.2A12.407,12.407,0,0,1,88.77,81.1H85.221c-3.416,0-9.227-3.125-9.227-9.046V70.43c0-5.194,2.478-8.523,6.744-9.788l11.985-3.216,0,3.785a4.827,4.827,0,0,1-3.56,4.663L81.135,68.6a2.3,2.3,0,0,0-1.694,2.217h0A2.759,2.759,0,0,0,82.2,73.579h10.08a5.454,5.454,0,0,0,5.45-5.458V53.814A2.8,2.8,0,0,0,94.927,51.011Z" transform="translate(-10.27 -2.613)" fill="#2e2b28"/>
    <path id="Tracé_4" data-name="Tracé 4" d="M208.878,51.011H199.4a6.547,6.547,0,0,1-6.446-6.641l0-.905h13.028c5.937,0,9.141,4.8,9.141,10.036v15.2A12.407,12.407,0,0,1,202.721,81.1h-3.549c-3.416,0-9.227-3.125-9.227-9.046V70.43c0-5.194,2.478-8.523,6.744-9.788l11.985-3.216,0,3.785a4.829,4.829,0,0,1-3.561,4.663L195.087,68.6a2.3,2.3,0,0,0-1.695,2.217h0a2.76,2.76,0,0,0,2.76,2.759h10.079a5.454,5.454,0,0,0,5.45-5.458V53.814A2.8,2.8,0,0,0,208.878,51.011Z" transform="translate(-34.738 -2.613)" fill="#2e2b28"/>
    <path id="Tracé_5" data-name="Tracé 5" d="M132.919,51.011h-9.475A6.547,6.547,0,0,1,117,44.369l0-.905h13.028c5.937,0,9.141,4.8,9.141,10.036v15.2A12.408,12.408,0,0,1,126.761,81.1h-3.549c-3.416,0-9.227-3.125-9.227-9.046V70.43c0-5.194,2.478-8.523,6.745-9.788l11.985-3.216,0,3.785a4.829,4.829,0,0,1-3.561,4.663L119.127,68.6a2.3,2.3,0,0,0-1.695,2.217h0a2.76,2.76,0,0,0,2.76,2.759h10.079a5.455,5.455,0,0,0,5.451-5.458V53.814A2.8,2.8,0,0,0,132.919,51.011Z" transform="translate(-18.428 -2.613)" fill="#2e2b28"/>
    <path id="Tracé_6" data-name="Tracé 6" d="M268.077,43.474c5.937,0,9.141,4.8,9.141,10.036V68.7A12.407,12.407,0,0,1,264.81,81.112h-3.549c-3.416,0-9.227-3.125-9.227-9.046V70.44c0-5.194,2.478-8.523,6.745-9.788l11.984-3.216,0,3.785a4.829,4.829,0,0,1-3.561,4.663l-10.03,2.729a2.3,2.3,0,0,0-1.695,2.217h0a2.76,2.76,0,0,0,2.76,2.759h10.079a5.454,5.454,0,0,0,5.45-5.458V53.824a2.8,2.8,0,0,0-2.8-2.8H255.042V51a11.482,11.482,0,0,0,2.835-7.531Z" transform="translate(-48.07 -2.615)" fill="#2e2b28"/>
    <path id="Tracé_7" data-name="Tracé 7" d="M173.714,53.467a4.451,4.451,0,0,0-2.035-3.739L169.623,48.4v-17.1h0a7.445,7.445,0,0,1,7.41,6.323,13.625,13.625,0,0,1,.121,1.815l.007,11.455v15.2a12.407,12.407,0,0,1-12.407,12.407H161.2c-3.416,0-9.227-3.125-9.227-9.046V67.817c0-5.194,2.478-8.523,6.744-9.788l11.985-3.216,0,3.785a4.827,4.827,0,0,1-3.56,4.663l-10.03,2.729a2.3,2.3,0,0,0-1.695,2.217h0a2.759,2.759,0,0,0,2.759,2.759h10.08a5.454,5.454,0,0,0,5.45-5.458Z" transform="translate(-26.585 0)" fill="#2e2b28"/>
  </g>
</svg>
